<svg width="17" height="17" viewBox="0 0 17 17" fill="none" xmlns="http://www.w3.org/2000/svg">
<g clip-path="url(#clip0_535_1214)">
<path d="M16.2633 8.60212C16.2627 8.09891 16.2207 7.59661 16.1378 7.10028H8.67601V10.0835H12.9484C12.8545 10.5631 12.666 11.0191 12.3939 11.4249C12.1218 11.8308 11.7716 12.1784 11.3637 12.4474V14.4299H13.9126C14.6897 13.6765 15.3003 12.7687 15.7052 11.7649C16.11 10.7612 16.3002 9.6838 16.2633 8.60212V8.60212Z" fill="#D7E4F5"/>
<path d="M8.67541 16.3468C10.6024 16.3982 12.476 15.7104 13.912 14.4245L11.3631 12.442C10.5635 12.9594 9.62761 13.2261 8.67541 13.208C7.68485 13.1961 6.72299 12.8736 5.92544 12.286C5.12789 11.6984 4.53487 10.8753 4.22997 9.93277H1.60175V11.9753C2.25889 13.2887 3.26864 14.3932 4.51794 15.1653C5.76724 15.9374 7.20679 16.3465 8.67541 16.3468V16.3468Z" fill="white"/>
<path d="M4.23177 9.93636C4.06406 9.44994 3.97917 8.93882 3.98066 8.4243C3.98243 7.91006 4.06722 7.39947 4.23177 6.91225V4.86975H1.60355C1.04349 5.97029 0.7516 7.18766 0.751705 8.4225C0.7516 9.65735 1.04349 10.8747 1.60355 11.9753L4.23177 9.93636Z" fill="#D7E4F5"/>
<path d="M8.67541 3.63643C9.80471 3.61833 10.8958 4.04539 11.7127 4.82529L13.9709 2.56712C12.5409 1.21706 10.6419 0.475995 8.67541 0.500593C7.20709 0.501263 5.76793 0.910526 4.51897 1.68258C3.27002 2.45464 2.26055 3.55902 1.60355 4.87215L4.23177 6.91465C4.53606 5.97183 5.12859 5.1483 5.92582 4.56015C6.72306 3.972 7.68478 3.64892 8.67541 3.63643V3.63643Z" fill="white"/>
</g>
<defs>
<clipPath id="clip0_535_1214">
<rect width="15.6191" height="16" fill="white" transform="translate(0.69043 0.5)"/>
</clipPath>
</defs>
</svg>
