<svg width="308" height="376" viewBox="0 0 308 376" fill="none" xmlns="http://www.w3.org/2000/svg">
    <path
        d="M106.908 144.058C106.908 144.058 163.236 118.568 222.478 118.568C281.719 118.568 303.579 144.955 306.635 170.64C309.692 196.328 293.942 235.792 247.16 278.292C200.378 320.792 96.318 378.717 9.02612 375.901C9.02612 375.901 78.0352 351.649 122.751 318.022C167.467 284.398 229.734 237.903 223.048 179.789C211.199 121.446 116.978 140.291 106.911 144.058H106.908Z"
        fill="#408DC1" />
    <path
        d="M159.233 185.224C159.233 185.224 120.978 206.594 69.4606 206.594C17.9429 206.594 -0.000219645 171.519 -0.000219645 154.844C-0.000219645 138.168 -0.579733 113.446 52.0938 63.9974C114.713 11.8009 188.701 2.23132 188.701 2.23132C188.701 2.23132 76.2372 33.5152 58.1507 119.58C42.7718 196.199 138.445 186.276 159.233 185.224Z"
        fill="#40B885" />
    <path
        d="M255.604 79.7983C275.176 70.0755 284.033 48.2711 275.386 31.0968C266.74 13.9225 243.864 7.8819 224.293 17.6047C204.721 27.3275 195.865 49.1319 204.511 66.3062C213.158 83.4805 236.033 89.5211 255.604 79.7983Z"
        fill="#F5825A" />
</svg>