<svg width="160" height="244" viewBox="0 0 160 244" fill="none" xmlns="http://www.w3.org/2000/svg">
<g clip-path="url(#clip0_526_1115)">
<path d="M69.6471 92.6231C69.6471 92.6231 106.343 76.0661 144.937 76.0661C183.531 76.0661 197.771 93.2061 199.763 109.89C201.754 126.575 191.493 152.209 161.017 179.815C130.54 207.421 62.7479 245.046 5.88022 243.216C5.88022 243.216 50.8373 227.464 79.9684 205.621C109.099 183.781 149.664 153.58 145.308 115.832C137.589 77.9357 76.2072 90.1765 69.6491 92.6231H69.6471Z" fill="white" fill-opacity="0.03"/>
<path d="M103.735 119.362C103.735 119.362 78.8134 133.244 45.2513 133.244C11.6893 133.244 -3.86157e-05 110.461 -3.86157e-05 99.629C-3.86157e-05 88.7974 -0.377572 72.739 33.9375 40.62C74.7315 6.71592 122.932 0.5 122.932 0.5C122.932 0.5 49.6661 20.8204 37.8833 76.7234C27.8645 126.491 90.1922 120.046 103.735 119.362Z" fill="white" fill-opacity="0.03"/>
<path d="M166.518 50.8835C179.268 44.568 185.038 30.405 179.405 19.2495C173.772 8.09397 158.869 4.17032 146.119 10.4858C133.369 16.8012 127.599 30.9642 133.232 42.1197C138.865 53.2752 153.767 57.1989 166.518 50.8835Z" fill="white" fill-opacity="0.03"/>
</g>
<defs>
<clipPath id="clip0_526_1115">
<rect width="200" height="242.781" fill="white" transform="translate(0 0.5)"/>
</clipPath>
</defs>
</svg>
