<svg width="1024" height="1024" viewBox="0 0 1024 1024" fill="none" xmlns="http://www.w3.org/2000/svg">
<rect width="1024" height="1024" fill="white"/>
<path d="M206 359H104V461H206V359Z" fill="#1C232E"/>
<path d="M206 461H104V563H206V461Z" fill="#242D38"/>
<path d="M206 563H104V665H206V563Z" fill="#2F3A46"/>
<path d="M359 359H257V461H359V359Z" fill="#1C232E"/>
<path d="M359 461H257V563H359V461Z" fill="#242D38"/>
<path d="M257 563H359V665" fill="#2F3A46"/>
<path d="M461 563H359V461" fill="#2F3A46"/>
<path d="M563 461H461V359" fill="#2F3A46"/>
<path d="M563 461H461V563H563V461Z" fill="#242D38"/>
<path d="M563 563H461V665H563V563Z" fill="#1C232E"/>
<path d="M920 359H614V461H920V359Z" fill="#1C232E"/>
<path d="M818.001 461H716V563H818.001V461Z" fill="#242D38"/>
<path d="M818.001 563H716V665H818.001V563Z" fill="#2F3A46"/>
</svg>