<svg width="215" height="64" viewBox="0 0 215 64" fill="none" xmlns="http://www.w3.org/2000/svg">
<path d="M139.5 21.3333V22.72H118.167V21.3333H116.94V0H118.167" fill="#2F3A46"/>
<path d="M75.5 42.6667V41.3333H96.8333V42.6667H98.06V64H96.8333" fill="#2F3A46"/>
<path d="M0.833376 42.6667H22.1667H23.7134V21.3333H22.1667" fill="#2F3A46"/>
<path d="M96.8333 20.2667H75.5V42.6667H96.8333V20.2667Z" fill="#242D38"/>
<path d="M45.5267 21.3333H24.1934V42.6667H45.5267V21.3333Z" fill="#242D38"/>
<path d="M22.1667 21.3333V23.3067H43.5V21.3333V0" fill="#1C232E"/>
<path d="M64.8333 21.3333H42.4333V42.6667H64.8333V21.3333Z" fill="#2F3A46"/>
<path d="M43.5001 41.3867H22.1667V64H43.5001V41.3867Z" fill="#2F3A46"/>
<path d="M43.5001 21.3333H22.1667V42.6667H43.5001V21.3333Z" fill="#242D38"/>
<path d="M150.167 42.6667H171.5H173.047V21.3333H171.5" fill="#2F3A46"/>
<path d="M171.5 21.3333V23.3067H192.833V21.3333V0" fill="#1C232E"/>
<path d="M214.167 21.3333H191.767V42.6667H214.167V21.3333Z" fill="#2F3A46"/>
<path d="M192.833 41.3867H171.5V64H192.833V41.3867Z" fill="#2F3A46"/>
<path d="M192.833 21.3333H171.5V42.6667H192.833V21.3333Z" fill="#242D38"/>
<path d="M139.5 21.3333H118.167V43.9467H139.5V21.3333Z" fill="#242D38"/>
<path d="M118.167 0H75.5V21.3333H118.167V0Z" fill="#1C232E"/>
<path d="M139.5 42.6667H96.8334V64H139.5V42.6667Z" fill="#1C232E"/>
</svg>
