<svg xmlns="http://www.w3.org/2000/svg" width="16" height="17" viewBox="0 0 16 17" fill="none">
    <mask id="mask0_1056_357" style="mask-type:alpha" maskUnits="userSpaceOnUse" x="0" y="0"
        width="16" height="17">
        <rect y="0.5" width="16" height="16" fill="#D9D9D9" />
    </mask>
    <g mask="url(#mask0_1056_357)">
        <path
            d="M3.43594 13.1667H4.26029L10.4334 6.99361L9.60906 6.16925L3.43594 12.3424V13.1667ZM12.5718 6.27055L10.3219 4.0411L11.1911 3.17188C11.3868 2.97616 11.6248 2.8783 11.9052 2.8783C12.1855 2.8783 12.4235 2.97616 12.6193 3.17188L13.4308 3.9834C13.6265 4.17912 13.7278 4.41373 13.7346 4.68723C13.7415 4.96073 13.647 5.19534 13.4513 5.39106L12.5718 6.27055ZM11.8488 7.00386L4.68592 14.1667H2.43597V11.9167L9.59879 4.7539L11.8488 7.00386Z"
            fill="#4F5D70" />
    </g>
</svg>