<svg width="16" height="16" viewBox="0 0 16 16" fill="none" xmlns="http://www.w3.org/2000/svg">
<mask id="mask0_848_579" style="mask-type:alpha" maskUnits="userSpaceOnUse" x="0" y="0" width="16" height="16">
<rect width="16" height="16" fill="#D9D9D9"/>
</mask>
<g mask="url(#mask0_848_579)">
<path d="M5.84609 12.9102L5.14354 12.2077L6.43843 10.8923C5.0803 10.712 3.94548 10.3562 3.03394 9.825C2.1224 9.29381 1.66663 8.68548 1.66663 8.00001C1.66663 7.18036 2.27838 6.47545 3.50188 5.88528C4.72538 5.29511 6.22473 5.00003 7.99994 5.00003C9.77515 5.00003 11.2745 5.29511 12.498 5.88528C13.7215 6.47545 14.3333 7.18036 14.3333 8.00001C14.3333 8.58634 13.9969 9.12394 13.3243 9.61281C12.6516 10.1017 11.7657 10.4709 10.6666 10.7205V9.70001C11.5222 9.47779 12.1805 9.20279 12.6416 8.87501C13.1027 8.54724 13.3333 8.25557 13.3333 8.00001C13.3333 7.63164 12.8583 7.20621 11.9083 6.72373C10.9583 6.24125 9.6555 6.00001 7.99994 6.00001C6.34439 6.00001 5.04161 6.24125 4.09161 6.72373C3.14161 7.20621 2.66661 7.63164 2.66661 8.00001C2.66661 8.29233 2.99268 8.62993 3.64483 9.01283C4.29697 9.39574 5.16663 9.67523 6.25381 9.8513L5.14354 8.74103L5.84609 8.03848L8.28196 10.4744L5.84609 12.9102Z" fill="#4F5D70"/>
</g>
</svg>
