<svg xmlns="http://www.w3.org/2000/svg" width="17" height="16" viewBox="0 0 17 16" fill="none">
    <path fill-rule="evenodd" clip-rule="evenodd"
        d="M8.24999 1.56006C4.60453 1.56006 1.64999 4.51459 1.64999 8.16006C1.64999 11.0749 3.54131 13.5486 6.16326 14.4236C6.49223 14.485 6.6152 14.279 6.6152 14.1055C6.6152 13.9464 6.60799 13.4292 6.60799 12.876C4.77081 13.2738 4.38384 12.0984 4.38384 12.0984C4.08374 11.3353 3.64959 11.1329 3.64959 11.1329C3.04914 10.7243 3.6929 10.7315 3.6929 10.7315C4.3547 10.7784 4.70559 11.4113 4.70559 11.4113C5.29495 12.4204 6.24988 12.1273 6.62603 11.961C6.68378 11.5343 6.85755 11.245 7.04549 11.0785C5.58086 10.9122 4.03656 10.3442 4.03656 7.81639C4.03656 7.09684 4.29335 6.50722 4.71642 6.04445C4.64758 5.87816 4.42354 5.20553 4.78138 4.29777C4.78138 4.29777 5.33465 4.12065 6.5969 4.97401C7.1249 4.82938 7.68899 4.75332 8.24974 4.75332C8.81022 4.75693 9.37457 4.82938 9.90257 4.97401C11.1612 4.12065 11.7145 4.29777 11.7145 4.29777C12.0726 5.20553 11.8483 5.87816 11.7794 6.04445C12.2025 6.50748 12.4593 7.09684 12.4593 7.81639C12.4593 10.3515 10.915 10.9083 9.44676 11.0713C9.68188 11.2775 9.89509 11.6789 9.89509 12.2936C9.89509 13.1761 9.88788 13.8884 9.88788 14.1055C9.88788 14.2826 10.0072 14.4852 10.3398 14.4236C12.9623 13.5486 14.85 11.0785 14.85 8.16006C14.85 4.51459 11.8955 1.56006 8.24999 1.56006Z"
        fill="#4F5D70" />
    <path
        d="M4.5218 10.7617C4.50868 10.7912 4.46274 10.801 4.41985 10.7814C4.37719 10.7617 4.35071 10.7223 4.36735 10.6925C4.38047 10.663 4.42641 10.6532 4.4693 10.6728C4.51196 10.6925 4.53821 10.7321 4.5218 10.7617Z"
        fill="#4F5D70" />
    <path
        d="M4.76507 11.0345C4.73554 11.0607 4.67953 11.0476 4.64343 11.0082C4.60406 10.9656 4.59749 10.9095 4.62703 10.8833C4.65656 10.857 4.70929 10.8702 4.74867 10.9095C4.78804 10.9522 4.7946 11.0082 4.76507 11.0345Z"
        fill="#4F5D70" />
    <path
        d="M5.0018 11.3796C4.96571 11.4059 4.90641 11.3829 4.86704 11.3271C4.83094 11.2746 4.83094 11.2088 4.86704 11.1825C4.90313 11.1563 4.96243 11.1793 5.0018 11.2318C5.04118 11.2875 5.04118 11.3534 5.0018 11.3796Z"
        fill="#4F5D70" />
    <path
        d="M5.32734 11.7118C5.29453 11.7479 5.22539 11.7381 5.17289 11.6888C5.12039 11.6396 5.10703 11.5705 5.14008 11.5344C5.17312 11.4983 5.24531 11.5081 5.29453 11.5573C5.34703 11.6098 5.36016 11.6788 5.32734 11.7118Z"
        fill="#4F5D70" />
    <path
        d="M5.7743 11.9057C5.76118 11.9516 5.69204 11.9748 5.62313 11.9549C5.55399 11.9352 5.51134 11.8792 5.52446 11.8333C5.53759 11.7873 5.60673 11.7641 5.67563 11.784C5.74149 11.8037 5.78743 11.8597 5.7743 11.9057Z"
        fill="#4F5D70" />
    <path
        d="M6.26414 11.9419C6.26742 11.9911 6.20836 12.034 6.13594 12.034C6.06352 12.0372 6.00774 11.9946 6.00446 11.9451C6.00446 11.8959 6.06024 11.853 6.13266 11.853C6.20508 11.853 6.26414 11.8924 6.26414 11.9419Z"
        fill="#4F5D70" />
    <path
        d="M6.72117 11.8663C6.73102 11.9155 6.6818 11.965 6.60938 11.9781C6.54023 11.9912 6.47461 11.9617 6.46805 11.9123C6.4582 11.863 6.5107 11.8136 6.57984 11.8005C6.64898 11.7873 6.71133 11.8171 6.72117 11.8663Z"
        fill="#4F5D70" />
</svg>