<svg xmlns="http://www.w3.org/2000/svg" width="17" height="16" viewBox="0 0 17 16" fill="none">
  <path d="M6.1505 7.99995C6.1505 6.8402 7.09045 5.89978 8.25025 5.89978C9.41005 5.89978 10.3505 6.8402 10.3505 7.99995C10.3505 9.15971 9.41005 10.1001 8.25025 10.1001C7.09045 10.1001 6.1505 9.15971 6.1505 7.99995ZM5.01515 7.99995C5.01515 9.78663 6.4635 11.2349 8.25025 11.2349C10.037 11.2349 11.4854 9.78663 11.4854 7.99995C11.4854 6.21327 10.037 4.76498 8.25025 4.76498C6.4635 4.76498 5.01515 6.21327 5.01515 7.99995ZM10.8574 4.63671C10.8572 5.05424 11.1956 5.39284 11.6131 5.39301C12.0307 5.39318 12.3693 5.05484 12.3695 4.63731C12.3696 4.21979 12.0313 3.88118 11.6137 3.88101C11.1964 3.88121 10.8578 4.21938 10.8574 4.63671ZM5.70495 13.128C5.0907 13.1 4.75684 12.9977 4.53497 12.9113C4.24082 12.7968 4.03095 12.6604 3.81029 12.44C3.58963 12.2197 3.45304 12.01 3.33903 11.7159C3.25254 11.4941 3.15022 11.1602 3.1223 10.546C3.09176 9.88189 3.08566 9.6824 3.08566 8C3.08566 6.3176 3.09226 6.11867 3.1223 5.45405C3.15027 4.83982 3.25335 4.50653 3.33903 4.28411C3.45354 3.98998 3.58993 3.78011 3.81029 3.55946C4.03065 3.33881 4.24032 3.20222 4.53497 3.08822C4.75674 3.00173 5.0907 2.89942 5.70495 2.8715C6.36905 2.84096 6.56854 2.83486 8.25025 2.83486C9.93197 2.83486 10.1317 2.84146 10.7963 2.8715C11.4106 2.89947 11.7439 3.00254 11.9663 3.08822C12.2604 3.20222 12.4703 3.33911 12.691 3.55946C12.9116 3.77981 13.0477 3.98998 13.1622 4.28411C13.2487 4.50587 13.351 4.83982 13.379 5.45405C13.4095 6.11867 13.4156 6.3176 13.4156 8C13.4156 9.6824 13.4095 9.88133 13.379 10.546C13.351 11.1602 13.2482 11.494 13.1622 11.7159C13.0477 12.01 12.9113 12.2199 12.691 12.44C12.4706 12.6602 12.2604 12.7968 11.9663 12.9113C11.7445 12.9978 11.4106 13.1001 10.7963 13.128C10.1322 13.1585 9.93272 13.1646 8.25025 13.1646C6.56778 13.1646 6.36885 13.1585 5.70495 13.128ZM5.65278 1.7381C4.98208 1.76865 4.52378 1.87499 4.12354 2.03073C3.70903 2.19155 3.35813 2.40732 3.00748 2.75739C2.65684 3.10747 2.44162 3.45891 2.28079 3.8734C2.12505 4.27388 2.0187 4.73191 1.98815 5.40259C1.95711 6.07432 1.95 6.28907 1.95 7.99995C1.95 9.71083 1.95711 9.92558 1.98815 10.5973C2.0187 11.268 2.12505 11.726 2.28079 12.1265C2.44162 12.5407 2.65689 12.8926 3.00748 13.2425C3.35808 13.5924 3.70903 13.8079 4.12354 13.9692C4.52454 14.1249 4.98208 14.2313 5.65278 14.2618C6.3249 14.2923 6.53931 14.3 8.25025 14.3C9.9612 14.3 10.176 14.2928 10.8477 14.2618C11.5185 14.2313 11.9765 14.1249 12.377 13.9692C12.7912 13.8079 13.1424 13.5926 13.493 13.2425C13.8437 12.8924 14.0584 12.5407 14.2197 12.1265C14.3755 11.726 14.4823 11.268 14.5124 10.5973C14.5429 9.92508 14.55 9.71083 14.55 7.99995C14.55 6.28907 14.5429 6.07432 14.5124 5.40259C14.4818 4.73186 14.3755 4.27363 14.2197 3.8734C14.0584 3.45916 13.8431 3.10803 13.493 2.75739C13.1429 2.40676 12.7912 2.19155 12.3775 2.03073C11.9765 1.87499 11.5184 1.76814 10.8482 1.7381C10.1765 1.70756 9.9617 1.69995 8.25076 1.69995C6.53981 1.69995 6.3249 1.70706 5.65278 1.7381Z" fill="#4F5D70"/>
</svg>