<svg width="1600" height="600" viewBox="0 0 1600 600" fill="none" xmlns="http://www.w3.org/2000/svg">
<path d="M200 0H0V211H200V0Z" fill="#1C232E"/>
<path d="M200 388H0V600H200V388Z" fill="#2F3A46"/>
<path d="M200 200H0V400H200V200Z" fill="#242D38"/>
<path d="M500 0H300V211H500V0Z" fill="#1C232E"/>
<path d="M300 400V386.5H500V400V600" fill="#2F3A46"/>
<path d="M700 400H500H489V200H500" fill="#2F3A46"/>
<path d="M500 200H300V400H500V200Z" fill="#242D38"/>
<path d="M899.999 200V210.5H699.999V200V0" fill="#2F3A46"/>
<path d="M899.999 388H699.999V600H899.999V388Z" fill="#1C232E"/>
<path d="M899.999 200H699.999V400H899.999V200Z" fill="#242D38"/>
<path d="M1600 0H1000V200H1200V215H1400V200H1600V0Z" fill="#1C232E"/>
<path d="M1400 387H1200V600H1400V387Z" fill="#2F3A46"/>
<path d="M1400 200H1200V400H1400V200Z" fill="#242D38"/>
</svg>
