<svg width="375" height="141" viewBox="0 0 375 141" fill="none" xmlns="http://www.w3.org/2000/svg">
    <path d="M46.875 0H0V46.875H46.875V0Z" fill="#1C232E" />
    <path d="M46.875 46.875H0V93.75H46.875V46.875Z" fill="#222B38" />
    <path d="M46.875 93.75H0V140.625H46.875V93.75Z" fill="#2B3647" />
    <path d="M117.188 0H70.3125V46.875H117.188V0Z" fill="#1C232E" />
    <path d="M117.188 46.875H70.3125V93.75H117.188V46.875Z" fill="#222B38" />
    <path d="M70.3125 93.75H117.188V140.625" fill="#2B3647" />
    <path d="M164.062 93.75H117.188V46.875" fill="#2B3647" />
    <path d="M210.937 46.875H164.062V0" fill="#2B3647" />
    <path d="M210.937 46.875H164.062V93.75H210.937V46.875Z" fill="#222B38" />
    <path d="M210.937 93.75H164.062V140.625H210.937V93.75Z" fill="#1C232E" />
    <path d="M375 0H234.375V46.875H375V0Z" fill="#1C232E" />
    <path d="M328.125 46.875H281.25V93.75H328.125V46.875Z" fill="#222B38" />
    <path d="M328.125 93.75H281.25V140.625H328.125V93.75Z" fill="#2B3647" />
</svg>