<svg width="16" height="17" viewBox="0 0 16 17" fill="none" xmlns="http://www.w3.org/2000/svg">
    <mask id="mask0_526_1173" style="mask-type:alpha" maskUnits="userSpaceOnUse" x="0" y="0"
        width="16" height="17">
        <rect y="0.5" width="16" height="16" fill="#D9D9D9" />
    </mask>
    <g mask="url(#mask0_526_1173)">
        <path
            d="M3.53851 14.1666C3.20175 14.1666 2.91671 14.05 2.68337 13.8166C2.45004 13.5833 2.33337 13.2983 2.33337 12.9615V4.03848C2.33337 3.70172 2.45004 3.41668 2.68337 3.18334C2.91671 2.95001 3.20175 2.83334 3.53851 2.83334H8.00644V3.83333H3.53851C3.48722 3.83333 3.4402 3.85469 3.39746 3.89743C3.35472 3.94017 3.33336 3.98719 3.33336 4.03848V12.9615C3.33336 13.0128 3.35472 13.0598 3.39746 13.1026C3.4402 13.1453 3.48722 13.1667 3.53851 13.1667H8.00644V14.1666H3.53851ZM10.8205 11.3461L10.1283 10.6231L11.7513 8.99998H6.06412V8.00001H11.7513L10.1283 6.37693L10.8205 5.65388L13.6667 8.49999L10.8205 11.3461Z"
            fill="#4F5D70" />
    </g>
</svg>