<svg width="44" height="45" viewBox="0 0 44 45" fill="none" xmlns="http://www.w3.org/2000/svg">
    <g clip-path="url(#clip0_848_759)">
        <path
            d="M21.9973 0.988892C28.7692 0.988892 35.5412 0.988892 42.3132 0.988892C43.5056 0.988892 43.5111 0.988892 43.5111 2.18137C43.5111 15.7253 43.5111 29.2692 43.5111 42.8132C43.5111 44.0056 43.5111 44.0111 42.3186 44.0111C28.7747 44.0111 15.2308 44.0111 1.68684 44.0111C0.494362 44.0111 0.488892 44.0111 0.488892 42.8186C0.488892 29.2747 0.488892 15.7308 0.488892 2.18684C0.488892 0.988892 0.488892 0.988892 1.68137 0.988892C8.45334 0.988892 15.2253 0.988892 21.9973 0.988892ZM22.0027 42.299C28.2277 42.299 34.4472 42.299 40.6721 42.299C41.799 42.299 41.799 42.299 41.799 41.1448C41.799 28.7004 41.799 16.2559 41.799 3.81146C41.799 2.71197 41.799 2.7065 40.7104 2.7065C28.2386 2.7065 15.7668 2.7065 3.29505 2.7065C2.21197 2.7065 2.2065 2.7065 2.2065 3.81693C2.2065 16.2614 2.2065 28.7058 2.2065 41.1503C2.2065 42.2935 2.2065 42.299 3.33881 42.299C9.56376 42.299 15.7833 42.299 22.0082 42.299H22.0027Z"
            fill="#F7CBCC" />
        <path
            d="M11.6206 38.0268C11.3088 38.3058 11.079 38.5465 10.8165 38.7379C10.1163 39.2521 9.56381 39.0716 9.32859 38.2238C9.23013 37.8627 9.22466 37.4634 9.22466 37.0805C9.21372 34.8214 9.21919 32.5677 9.22466 30.3085C9.22466 29.8928 9.19731 29.4826 9.03321 29.0942C8.94569 28.8863 8.81988 28.6949 8.56278 28.6839C8.25646 28.673 8.11423 28.9082 8.05953 29.1489C7.98842 29.4662 7.96654 29.7998 7.96107 30.128C7.9556 32.5786 7.96107 35.0292 7.95013 37.4744C7.95013 38.3605 7.81885 39.2248 7.32654 40.007C6.87252 40.7291 6.19423 40.9533 5.40654 40.8549C4.66808 40.7619 4.3727 40.1656 4.19218 39.5475C4.03355 38.995 3.92962 38.4262 3.92962 37.8409C3.94056 34.5916 3.92962 31.3424 3.92962 28.0986C3.92962 27.9619 3.92962 27.8251 3.93509 27.6884C3.94603 27.3602 4.03902 27.0484 4.40552 27.0156C4.78842 26.9827 4.90876 27.3055 4.958 27.6118C5.00176 27.8798 4.99629 28.1588 4.99629 28.4323C4.99629 31.3479 4.99629 34.2689 4.99629 37.1844C4.99629 37.6822 5.0127 38.1745 5.22056 38.6395C5.33543 38.9021 5.49953 39.1099 5.82227 39.1263C6.16688 39.1482 6.39663 38.9896 6.57167 38.7106C6.80688 38.3386 6.79594 37.9229 6.79594 37.5126C6.79594 35.0073 6.79594 32.502 6.79594 29.9967C6.79594 29.1598 6.89441 28.3448 7.40312 27.6391C8.02671 26.7803 8.95116 26.7694 9.60757 27.5954C10.1765 28.312 10.2585 29.1544 10.264 30.0186C10.2749 32.0262 10.264 34.0391 10.2749 36.0467C10.2749 36.3147 10.0944 36.7414 10.4883 36.8289C10.7946 36.8945 10.986 36.528 11.1501 36.2819C11.5659 35.6419 11.7464 34.9253 11.7464 34.165C11.7464 32.6224 11.7464 31.0798 11.7518 29.5427C11.7518 28.848 11.8339 28.1643 12.2441 27.5735C12.5012 27.2015 12.8021 26.8405 13.2944 26.8624C14.0985 26.8952 14.2024 26.3974 14.186 25.7957C14.1641 25.1338 13.8414 24.8002 13.1467 24.8002C10.6688 24.8111 8.19082 24.8002 5.71287 24.8002C5.38466 24.8002 5.05099 24.8002 4.72278 24.7947C4.25235 24.7838 3.80928 24.7017 3.81475 24.0945C3.81475 23.4764 4.26329 23.4326 4.73919 23.4381C7.76415 23.4381 10.7946 23.4491 13.8195 23.4326C14.4705 23.4326 14.8479 23.7171 15.0777 24.286C15.4113 25.0956 15.4879 25.9434 15.3676 26.8022C15.2308 27.7978 14.6729 28.3284 13.6336 28.4542C12.7474 28.5636 12.9498 29.22 12.906 29.767C12.8623 30.3031 13.0483 30.6094 13.6445 30.5711C14.5853 30.5109 14.9409 31.1783 15.1816 31.9113C15.3183 32.3215 15.3785 32.7756 15.384 33.2132C15.4059 35.3574 15.3949 37.5072 15.3894 39.6515C15.3894 39.8703 15.3676 40.0945 15.3019 40.3024C15.2253 40.5595 15.0394 40.7236 14.744 40.6853C14.4869 40.647 14.3775 40.4556 14.3501 40.2258C14.3228 40.007 14.3228 39.7882 14.3228 39.5694C14.3228 37.7533 14.3228 35.9373 14.3173 34.1212C14.3173 33.7109 14.2517 33.3007 14.2079 32.8904C14.1587 32.4309 13.9891 32.1027 13.4366 32.1356C12.8404 32.1684 12.9115 32.595 12.9115 32.9725C12.906 35.1168 12.9224 37.2665 12.9006 39.4108C12.8951 39.9414 13.1139 40.8002 12.2988 40.7783C11.5877 40.7619 11.823 39.9304 11.7573 39.4162C11.7026 38.9896 11.8448 38.5465 11.6096 38.0323L11.6206 38.0268Z"
            fill="#F7CBCC" />
        <path
            d="M34.7152 4.16154C36.0117 4.16154 37.3026 4.17795 38.599 4.15607C39.2882 4.14513 39.7477 4.45146 40.0595 5.03676C40.7159 6.25112 40.6503 7.46547 40.0814 8.6853C39.8188 9.24872 39.3594 9.47847 38.7467 9.473C37.866 9.46206 36.9853 9.49488 36.1047 9.473C35.4647 9.45659 35.2185 9.73556 35.224 10.3591C35.2458 12.58 35.0489 12.2026 37.04 12.2409C37.5378 12.2518 38.0301 12.2409 38.5279 12.2409C40.0376 12.2627 40.5573 13.0723 40.5464 15.3479C40.5354 16.9725 39.8899 17.7438 38.517 17.7492C37.0017 17.7492 35.4865 17.7766 33.9713 17.7438C33.1672 17.7274 32.8937 18.0993 32.8992 18.8433C32.9046 19.795 33.0633 20.0139 33.9494 20.0193C35.6835 20.0357 37.4175 20.0193 39.1515 20.0303C39.425 20.0303 39.7094 20.0303 39.972 20.0959C40.3768 20.1944 40.5409 20.5062 40.5245 20.9055C40.5026 21.3321 40.2619 21.5619 39.8352 21.5619C37.6855 21.5619 35.5412 21.5728 33.3915 21.5509C32.7898 21.5455 32.3631 21.1954 32.106 20.6539C31.9474 20.3256 31.8763 19.9865 31.8599 19.62C31.7669 16.8084 32.0896 16.0645 35.1146 16.2286C36.2141 16.2887 37.319 16.2504 38.4185 16.2286C39.2773 16.2121 39.4688 15.9605 39.4578 15.0197C39.4469 14.128 39.1898 13.7998 38.3911 13.7944C35.9132 13.778 33.4352 13.7998 30.9573 13.7834C30.2407 13.778 29.9672 14.1116 29.9672 14.7844C29.9727 16.4091 29.9672 18.0337 29.9672 19.6583C29.9672 19.9865 29.9727 20.3202 29.9672 20.6484C29.9508 21.0368 29.9508 21.5127 29.4257 21.4962C28.9771 21.4853 28.917 21.0477 28.917 20.6812C28.9115 18.5041 28.8787 16.3325 28.9279 14.1554C28.9552 12.941 29.7429 12.2518 30.9409 12.2409C31.7669 12.2354 32.5929 12.2244 33.4188 12.2409C33.9385 12.2518 34.1792 12.0385 34.1682 11.5079C34.1518 10.9007 34.1518 10.2935 34.1737 9.6918C34.2229 8.55402 34.8629 7.94684 36.0062 7.9359C36.8048 7.9359 37.6035 7.93043 38.4021 7.9359C39.2117 7.9359 39.3265 7.39983 39.3375 6.77077C39.3484 6.13624 39.0858 5.80257 38.4021 5.80804C35.9241 5.82445 33.4462 5.82445 30.9682 5.80804C30.2899 5.80804 30.0164 6.16906 29.9946 6.77077C29.9727 7.37795 30.1805 7.85932 30.8752 7.95231C31.1761 7.9906 31.4824 7.9906 31.7778 8.05077C32.1552 8.12736 32.3194 8.41727 32.3248 8.7783C32.3303 9.1612 32.1224 9.37453 31.745 9.46206C30.0602 9.83402 29.0592 9.10103 28.917 7.37795C28.8896 7.0224 28.8623 6.6559 28.917 6.30582C29.0975 5.00394 29.6609 4.0412 31.1816 4.15607C32.3576 4.24359 33.5501 4.17248 34.7317 4.17795L34.7152 4.16154Z"
            fill="#F7CBCC" />
        <path
            d="M35.0544 30.6422C33.6759 30.6422 32.3029 30.6422 30.9244 30.6422C29.4967 30.6422 28.8567 30.1335 28.802 28.7222C28.7528 27.4094 28.8294 26.0802 28.9443 24.7673C29.0263 23.8484 29.6991 23.3287 30.6509 23.3287C33.5665 23.3178 36.4875 23.3287 39.4031 23.3287C39.972 23.3287 40.5026 23.4162 40.519 24.1219C40.5409 24.9041 39.9391 24.9588 39.3648 24.9643C36.586 24.9752 33.8072 24.9643 31.0229 24.9752C30.6783 24.9752 30.2844 24.8986 30.0492 25.2706C29.721 25.7848 30.0273 26.2661 30.7111 26.2661C33.4352 26.2771 36.1593 26.2661 38.8834 26.2661C39.1022 26.2661 39.3265 26.2771 39.5453 26.2661C40.1197 26.2388 40.5518 26.4357 40.5791 27.0593C40.612 27.7485 40.1142 27.8306 39.5672 27.8251C36.6516 27.8251 33.7306 27.8251 30.815 27.8251C30.361 27.8251 29.8906 27.7868 29.9453 28.4815C29.9891 29.0559 30.3829 29.1051 30.826 29.1051C32.642 29.1051 34.4581 29.1051 36.2742 29.1051C37.3463 29.1051 38.4185 29.1051 39.4961 29.1051C40.0978 29.1051 40.5409 29.302 40.5244 29.9913C40.508 30.675 39.9884 30.6422 39.507 30.6477C38.0191 30.6477 36.5367 30.6477 35.0489 30.6477L35.0544 30.6422Z"
            fill="#F7CBCC" />
        <path
            d="M17.4079 15.7034C17.4079 17.328 17.4079 18.9527 17.4079 20.5773C17.4079 20.9875 17.4243 21.5126 16.85 21.4908C16.3522 21.4744 16.3467 20.9821 16.3522 20.5937C16.4014 17.0709 16.292 13.5482 16.4835 10.0309C16.5327 9.10103 16.8773 8.32974 17.5392 7.68974C17.7416 7.49829 17.933 7.30684 18.0424 7.04427C18.3871 6.24564 18.1792 5.86273 17.3204 5.80256C16.7953 5.76427 16.3741 5.62205 16.3741 5.01487C16.3741 4.38034 16.7843 4.16701 17.3587 4.16701C19.0653 4.16701 20.772 4.16701 22.4787 4.16701C23.1679 4.16701 23.6821 4.50068 24.0978 5.02581C25.3341 6.59026 25.2301 9.45658 23.8845 10.939C23.3977 11.475 22.7577 11.672 22.0903 11.6009C20.7665 11.4586 20.2359 11.8197 20.4657 13.6084C20.6845 15.3041 21.4503 16.8029 22.6209 18.0774C23.1624 18.6682 23.7094 19.2426 24.2346 19.8443C24.4479 20.0904 24.6339 20.3749 24.7652 20.6703C24.891 20.9492 24.7488 21.2118 24.53 21.4087C24.2947 21.6166 24.0541 21.5291 23.8681 21.3376C21.7785 19.2316 19.7983 17.0491 19.3771 13.9311C19.2568 13.0285 19.2787 12.1205 19.678 11.2562C20.0335 10.4795 20.5915 10.0747 21.4777 10.0638C23.5235 10.0364 24.4807 8.45008 23.6165 6.59026C23.3867 6.09248 23.0421 5.79709 22.4732 5.80256C22.2271 5.80256 21.9754 5.79162 21.7293 5.80256C21.0674 5.8135 20.3563 5.67675 19.7655 5.87914C19.0325 6.13624 19.3717 7.04427 19.0927 7.61863C18.8848 8.0453 18.6934 8.47744 18.3324 8.78376C17.6431 9.37453 17.4353 10.1403 17.4298 10.9991C17.4298 12.5691 17.4298 14.139 17.4298 15.7034C17.4298 15.7034 17.4243 15.7034 17.4188 15.7034H17.4079Z"
            fill="#F7CBCC" />
        <path
            d="M34.6277 32.0426C35.9734 32.0426 37.3245 32.0645 38.6701 32.0316C39.3703 32.0152 39.8352 32.3051 40.1197 32.9068C40.7323 34.1978 40.6229 35.4668 39.9775 36.714C39.6766 37.2993 39.1132 37.447 38.5279 37.5236C37.9918 37.5947 37.5487 37.7369 37.5706 38.4098C37.598 39.1045 38.0957 39.1592 38.6154 39.181C38.9983 39.1974 39.3867 39.181 39.7696 39.2303C40.251 39.2904 40.5135 39.6022 40.4862 40.0781C40.4588 40.5431 40.147 40.7345 39.693 40.7181C39.2554 40.7017 38.8123 40.7072 38.3747 40.6908C37.1932 40.6416 36.5696 39.9414 36.5258 38.634C36.4711 36.9985 37.0181 36.1506 38.238 35.992C39.2116 35.8662 39.7477 34.7174 39.2335 33.8805C39.1022 33.6617 38.8999 33.607 38.6701 33.6015C37.7347 33.5961 36.7993 33.6015 35.864 33.5906C35.2622 33.5797 35.224 33.968 35.224 34.4166C35.224 36.1506 35.2294 37.8846 35.224 39.6186C35.224 40.0727 35.306 40.7345 34.6988 40.74C34.0643 40.751 34.1846 40.0836 34.1846 39.6405C34.1737 37.9339 34.1518 36.2272 34.1901 34.526C34.2065 33.793 33.9221 33.5468 33.2219 33.5797C32.4287 33.618 31.6246 33.607 30.8315 33.5797C30.2626 33.5633 29.9399 33.7711 29.9399 34.3783C29.9399 34.9855 29.8578 35.6364 30.6783 35.8224C32.6311 36.26 33.4188 38.005 32.4944 39.821C32.2154 40.368 31.7669 40.6416 31.187 40.6908C30.6674 40.7345 30.1422 40.7127 29.6226 40.7236C29.1631 40.7345 28.8732 40.5103 28.8513 40.0508C28.8294 39.5694 29.0975 39.2631 29.5788 39.2139C29.9891 39.1701 30.4048 39.1865 30.8151 39.1701C31.3074 39.1537 31.6793 39.006 31.7012 38.4262C31.7231 37.8846 31.5316 37.4908 30.9628 37.4142C30.0602 37.2993 29.2999 37.0149 28.999 36.0521C28.627 34.8706 28.6434 33.7219 29.3217 32.6388C29.5952 32.2012 29.9891 32.0262 30.5033 32.0316C31.8763 32.048 33.2547 32.0316 34.6277 32.0316V32.0426Z"
            fill="#F7CBCC" />
        <path
            d="M12.8021 12.3721C12.8021 14.5766 12.8021 16.7755 12.8021 18.98C12.8021 19.4231 12.7966 19.8607 12.6489 20.2873C12.3754 21.1079 11.8558 21.5728 10.9477 21.5673C8.88552 21.5564 6.81783 21.5564 4.75561 21.5673C4.23048 21.5673 3.79835 21.4634 3.80929 20.8234C3.82023 20.2217 4.23048 20.0302 4.75561 20.0248C6.62638 20.0138 8.49715 20.0248 10.3734 20.0138C11.626 20.0138 11.7354 19.9044 11.7409 18.6354C11.7464 15.687 11.7245 12.7441 11.7573 9.79572C11.7628 9.05726 11.5604 8.75093 10.7782 8.78922C9.65134 8.84392 8.51903 8.8111 7.39219 8.80016C6.80142 8.79469 6.03014 8.93691 6.04655 8.02888C6.06843 7.12632 6.85065 7.30683 7.43048 7.29589C8.47527 7.27948 9.52005 7.29589 10.5703 7.29589C11.3471 7.29589 11.7373 6.89293 11.7409 6.087C11.7409 5.7588 11.73 5.42512 11.7573 5.09692C11.7901 4.73042 11.8667 4.30922 12.3317 4.34204C12.731 4.3694 12.7966 4.75777 12.7966 5.10239C12.7966 6.69965 12.7966 8.29692 12.8021 9.89418C12.8021 10.7202 12.8021 11.5461 12.8021 12.3721Z"
            fill="#F7CBCC" />
        <path
            d="M25.6787 31.3369C25.6787 33.5414 25.6677 35.7403 25.6841 37.9448C25.6896 38.6942 25.438 39.3396 25.0277 39.9468C24.6776 40.4665 24.2181 40.7345 23.5781 40.729C21.4831 40.7181 19.3935 40.7181 17.2985 40.729C16.7679 40.729 16.3412 40.6196 16.3576 39.9796C16.374 39.3779 16.7843 39.1919 17.3094 39.1865C19.2076 39.181 21.1111 39.1865 23.0093 39.1755C24.1908 39.1755 24.5846 38.7817 24.6011 37.5892C24.612 36.1834 24.5846 34.7831 24.612 33.3772C24.6229 32.8084 24.4096 32.595 23.8407 32.606C22.4623 32.6333 21.0893 32.606 19.7108 32.6169C19.2021 32.6169 18.7207 32.5513 18.7317 31.9113C18.7426 31.2877 19.2185 31.2002 19.7272 31.2056C21.0236 31.2111 22.32 31.1619 23.611 31.222C24.4315 31.2603 24.6448 30.9485 24.6229 30.1718C24.5737 28.4378 24.6065 26.7037 24.6065 24.9697C24.6065 24.7783 24.6065 24.5814 24.612 24.3899C24.6339 23.9906 24.694 23.5256 25.1699 23.5202C25.7005 23.5147 25.6677 24.0125 25.6732 24.3954C25.6787 26.7092 25.6732 29.0231 25.6732 31.3314L25.6787 31.3369Z"
            fill="#F7CBCC" />
        <path
            d="M3.78193 10.4357C3.78193 9.02992 3.77099 7.62958 3.78193 6.22376C3.79287 4.83983 4.36176 4.27641 5.72381 4.27641C6.68655 4.27641 7.64928 4.28188 8.61749 4.27641C9.12074 4.27641 9.59116 4.32017 9.61851 4.97111C9.64586 5.65487 9.15903 5.78069 8.62296 5.79163C7.68757 5.80804 6.75219 5.82445 5.8168 5.7971C5.11663 5.77522 4.83219 6.04325 4.83766 6.7653C4.86501 9.35265 4.8486 11.94 4.85407 14.5274C4.85407 14.7188 4.85954 14.9212 4.91971 15.0962C5.01817 15.3862 5.17133 15.687 5.5433 15.6542C5.89339 15.6214 6.06843 15.3479 6.08484 15.0197C6.12313 14.2757 6.13407 13.5373 6.15048 12.7933C6.16689 12.0713 6.23253 11.3656 6.67561 10.7475C7.4086 9.71915 8.45339 9.73556 9.14809 10.8022C9.45441 11.2727 9.63492 11.7923 9.63492 12.3557C9.64586 13.7068 9.65133 15.0525 9.64039 16.4036C9.64039 16.7865 9.63492 17.2788 9.11527 17.2679C8.61202 17.2624 8.59014 16.7756 8.58467 16.3872C8.57373 15.233 8.58467 14.0733 8.57373 12.9191C8.57373 12.6456 8.54638 12.3667 8.47527 12.1096C8.39868 11.8306 8.20723 11.6227 7.87903 11.6391C7.58911 11.6501 7.45236 11.847 7.34843 12.0877C7.20074 12.4268 7.1898 12.7824 7.1898 13.138C7.1898 13.7998 7.1898 14.4617 7.18433 15.1181C7.18433 15.7855 6.91082 16.3544 6.4568 16.8248C5.83868 17.4648 4.90877 17.3937 4.38911 16.6607C4.00074 16.1137 3.77099 15.5065 3.77646 14.8118C3.79287 13.3513 3.77646 11.8908 3.77646 10.4357H3.78193Z"
            fill="#F7CBCC" />
        <path
            d="M16.3412 32.0535C16.3412 30.954 16.3248 30.0679 16.3412 29.1872C16.374 27.8853 16.9976 27.3 18.2995 27.2891C18.9067 27.2891 19.5139 27.2672 20.1156 27.2891C20.9252 27.3164 21.1604 26.8897 21.1385 26.1513C21.1111 25.1885 20.9689 24.9861 20.0773 24.9697C19.1693 24.9533 18.2612 24.9643 17.3532 24.9588C16.7952 24.9588 16.3467 24.8002 16.3631 24.1383C16.3795 23.4873 16.8554 23.4381 17.3587 23.4381C18.294 23.4381 19.2294 23.4381 20.1648 23.4381C21.3409 23.4381 21.9973 23.9796 22.1505 25.1667C22.2325 25.7902 22.2325 26.4357 22.1669 27.0593C22.0411 28.2135 21.3409 28.7933 20.1758 28.7988C19.5412 28.7988 18.9122 28.8097 18.2776 28.7988C17.7033 28.7933 17.4079 29.0559 17.4079 29.6412C17.4079 31.1291 17.386 32.6169 17.4188 34.0993C17.4352 35.0402 17.7525 35.3137 18.6934 35.3246C19.8749 35.3355 21.0619 35.3355 22.2434 35.3246C22.7467 35.3246 23.146 35.4504 23.1405 36.0302C23.1405 36.6046 22.7412 36.7468 22.238 36.7414C20.9416 36.7359 19.6506 36.7414 18.3542 36.7414C17.304 36.7414 16.7952 36.3694 16.4999 35.3574C16.1607 34.1978 16.4233 32.9998 16.3358 32.048L16.3412 32.0535Z"
            fill="#F7CBCC" />
        <path
            d="M27.9871 12.952C27.9871 15.2877 27.9871 17.6289 27.9871 19.9646C27.9871 20.1561 27.9871 20.3475 27.9871 20.5445C27.9761 20.9875 28.0035 21.5728 27.4401 21.5674C26.8657 21.5619 26.9204 20.9547 26.9204 20.5226C26.9149 15.4901 26.9204 10.4576 26.9204 5.42513C26.9204 5.23368 26.9204 5.03676 26.9642 4.85078C27.0298 4.58821 27.1173 4.27642 27.4674 4.29283C27.8011 4.30377 27.916 4.58821 27.9597 4.86719C27.998 5.10787 27.9871 5.35949 27.9871 5.60565C27.9871 8.05078 27.9871 10.5014 27.9871 12.9465V12.952Z"
            fill="#F7CBCC" />
        <path
            d="M15.4331 12.9684C15.4331 15.2822 15.4331 17.5906 15.4331 19.9044C15.4331 20.0685 15.4386 20.2326 15.4331 20.4022C15.4058 20.8781 15.5425 21.5728 14.8807 21.5673C14.2899 21.5619 14.3774 20.8836 14.3774 20.435C14.3665 17.6836 14.3774 14.9321 14.3774 12.1807C14.3774 10.1185 14.3774 8.05624 14.3774 5.98854C14.3774 5.79709 14.3665 5.60017 14.3774 5.40871C14.4048 4.98205 14.3282 4.37487 14.9025 4.36393C15.5043 4.34752 15.4331 4.9547 15.4331 5.37589C15.4386 7.90854 15.4331 10.4412 15.4331 12.9684Z"
            fill="#F7CBCC" />
        <path
            d="M27.9925 32.0809C27.9925 34.5862 27.9925 37.086 27.9925 39.5913C27.9925 40.0453 28.0855 40.7181 27.4947 40.7291C26.811 40.74 26.9422 40.0289 26.9422 39.5639C26.9313 34.6135 26.9368 29.6576 26.9368 24.7072C26.9368 24.6251 26.9368 24.5431 26.9368 24.461C26.9751 24.0563 26.9422 23.5092 27.4892 23.5202C28.0417 23.5311 27.9925 24.0781 27.9925 24.4884C27.998 27.021 27.9925 29.5537 27.9925 32.0809Z"
            fill="#F7CBCC" />
    </g>
    <defs>
        <clipPath id="clip0_848_759">
            <rect width="44" height="44" fill="white" transform="translate(0 0.5)" />
        </clipPath>
    </defs>
</svg>