<svg xmlns="http://www.w3.org/2000/svg" width="24" height="24" viewBox="0 0 24 24" fill="none">
    <mask id="mask0_1098_1789" style="mask-type:alpha" maskUnits="userSpaceOnUse" x="0" y="0"
        width="24" height="24">
        <rect width="24" height="24" fill="#D9D9D9" />
    </mask>
    <g mask="url(#mask0_1098_1789)">
        <path
            d="M9.69236 21.5L9.31159 18.4538C9.04364 18.3641 8.76895 18.2384 8.48754 18.0769C8.20612 17.9153 7.95451 17.7422 7.73271 17.5576L4.91156 18.7499L2.60391 14.75L5.04429 12.9058C5.0212 12.757 5.00485 12.6077 4.99524 12.4577C4.98562 12.3077 4.98081 12.1583 4.98081 12.0096C4.98081 11.8673 4.98562 11.7227 4.99524 11.5759C5.00485 11.4291 5.0212 11.2686 5.04429 11.0942L2.60391 9.24998L4.91156 5.26925L7.72309 6.45195C7.96412 6.26092 8.2215 6.08623 8.49521 5.9279C8.76895 5.76955 9.03786 5.6423 9.30196 5.54615L9.69236 2.5H14.3077L14.6884 5.55578C14.9884 5.66474 15.2599 5.79198 15.5029 5.9375C15.7458 6.08302 15.991 6.2545 16.2385 6.45195L19.0885 5.26925L21.3961 9.24998L18.9173 11.123C18.9532 11.2846 18.9727 11.4355 18.9759 11.5759C18.9791 11.7163 18.9807 11.8577 18.9807 12C18.9807 12.1359 18.9775 12.274 18.9711 12.4144C18.9647 12.5548 18.9416 12.7154 18.9019 12.8962L21.3615 14.75L19.0538 18.7499L16.2385 17.548C15.991 17.7455 15.7385 17.9201 15.4808 18.0721C15.2231 18.224 14.959 18.348 14.6884 18.4442L14.3077 21.5H9.69236ZM12.0115 15C12.8436 15 13.5516 14.708 14.1356 14.124C14.7195 13.54 15.0115 12.832 15.0115 12C15.0115 11.1679 14.7195 10.4599 14.1356 9.87595C13.5516 9.29198 12.8436 9 12.0115 9C11.1693 9 10.4587 9.29198 9.87984 9.87595C9.301 10.4599 9.01159 11.1679 9.01159 12C9.01159 12.832 9.301 13.54 9.87984 14.124C10.4587 14.708 11.1693 15 12.0115 15Z"
            fill="#9098A3" />
    </g>
</svg>