<svg width="24" height="24" viewBox="0 0 24 24" fill="none" xmlns="http://www.w3.org/2000/svg">
<mask id="mask0_1098_1580" style="mask-type:alpha" maskUnits="userSpaceOnUse" x="0" y="0" width="24" height="24">
<rect width="24" height="24" fill="#D9D9D9"/>
</mask>
<g mask="url(#mask0_1098_1580)">
<path d="M9.69236 21.5L9.31159 18.4538C9.04364 18.3641 8.76895 18.2384 8.48754 18.0769C8.20612 17.9153 7.95451 17.7422 7.73271 17.5576L4.91156 18.7499L2.60391 14.75L5.04429 12.9058C5.0212 12.757 5.00485 12.6077 4.99524 12.4577C4.98562 12.3077 4.98081 12.1583 4.98081 12.0096C4.98081 11.8673 4.98562 11.7227 4.99524 11.5759C5.00485 11.4291 5.0212 11.2686 5.04429 11.0942L2.60391 9.24998L4.91156 5.26925L7.72309 6.45195C7.96412 6.26092 8.2215 6.08623 8.49521 5.9279C8.76895 5.76955 9.03786 5.6423 9.30196 5.54615L9.69236 2.5H14.3077L14.6884 5.55578C14.9884 5.66474 15.2599 5.79198 15.5029 5.9375C15.7458 6.08302 15.991 6.2545 16.2385 6.45195L19.0885 5.26925L21.3961 9.24998L18.9173 11.123C18.9532 11.2846 18.9727 11.4355 18.9759 11.5759C18.9791 11.7163 18.9807 11.8577 18.9807 12C18.9807 12.1359 18.9775 12.274 18.9711 12.4144C18.9647 12.5548 18.9416 12.7154 18.9019 12.8962L21.3615 14.75L19.0538 18.7499L16.2385 17.548C15.991 17.7455 15.7385 17.9201 15.4808 18.0721C15.2231 18.224 14.959 18.348 14.6884 18.4442L14.3077 21.5H9.69236ZM12.0115 15C12.8436 15 13.5516 14.708 14.1356 14.124C14.7195 13.54 15.0115 12.832 15.0115 12C15.0115 11.1679 14.7195 10.4599 14.1356 9.87595C13.5516 9.29198 12.8436 9 12.0115 9C11.1693 9 10.4587 9.29198 9.87984 9.87595C9.301 10.4599 9.01159 11.1679 9.01159 12C9.01159 12.832 9.301 13.54 9.87984 14.124C10.4587 14.708 11.1693 15 12.0115 15ZM12.0115 13.5C11.5949 13.5 11.2407 13.3541 10.949 13.0625C10.6574 12.7708 10.5115 12.4166 10.5115 12C10.5115 11.5833 10.6574 11.2291 10.949 10.9375C11.2407 10.6458 11.5949 10.5 12.0115 10.5C12.4282 10.5 12.7824 10.6458 13.074 10.9375C13.3657 11.2291 13.5115 11.5833 13.5115 12C13.5115 12.4166 13.3657 12.7708 13.074 13.0625C12.7824 13.3541 12.4282 13.5 12.0115 13.5ZM11 20H12.9654L13.325 17.3211C13.8353 17.1878 14.3016 16.9984 14.724 16.7529C15.1465 16.5074 15.5538 16.1917 15.9462 15.8058L18.4308 16.85L19.4154 15.15L17.2462 13.5154C17.3295 13.2564 17.3862 13.0025 17.4164 12.7538C17.4465 12.5051 17.4615 12.2538 17.4615 12C17.4615 11.7397 17.4465 11.4884 17.4164 11.2461C17.3862 11.0038 17.3295 10.7564 17.2462 10.5038L19.4346 8.84998L18.45 7.14998L15.9365 8.2096C15.6019 7.8519 15.201 7.53588 14.7337 7.26153C14.2663 6.98716 13.7936 6.79293 13.3154 6.67883L13 3.99998H11.0154L10.6846 6.6692C10.1744 6.78972 9.70321 6.97433 9.27116 7.22305C8.83911 7.47177 8.42694 7.79228 8.03464 8.1846L5.55001 7.14998L4.56539 8.84998L6.72501 10.4596C6.64168 10.6968 6.58335 10.9436 6.55001 11.2C6.51668 11.4564 6.50001 11.7263 6.50001 12.0096C6.50001 12.2699 6.51668 12.525 6.55001 12.775C6.58335 13.025 6.63847 13.2718 6.71539 13.5154L4.56539 15.15L5.55001 16.85L8.02501 15.8C8.4045 16.1897 8.81026 16.509 9.24231 16.7577C9.67436 17.0064 10.1519 17.1974 10.675 17.3308L11 20Z" fill="#9098A3"/>
</g>
</svg>
