<svg width="24" height="24" viewBox="0 0 24 24" fill="none" xmlns="http://www.w3.org/2000/svg">
<mask id="mask0_848_602" style="mask-type:alpha" maskUnits="userSpaceOnUse" x="0" y="0" width="24" height="24">
<rect width="24" height="24" fill="#D9D9D9"/>
</mask>
<g mask="url(#mask0_848_602)">
<path d="M9.69233 21.5L9.31156 18.4538C9.04361 18.3641 8.76892 18.2384 8.48751 18.0769C8.20609 17.9154 7.95448 17.7423 7.73268 17.5577L4.91153 18.75L2.60388 14.75L5.04426 12.9058C5.02117 12.7571 5.00482 12.6077 4.99521 12.4577C4.98559 12.3077 4.98078 12.1583 4.98078 12.0096C4.98078 11.8673 4.98559 11.7228 4.99521 11.576C5.00482 11.4292 5.02117 11.2686 5.04426 11.0942L2.60388 9.25001L4.91153 5.26928L7.72306 6.45198C7.96409 6.26095 8.22147 6.08626 8.49518 5.92793C8.76892 5.76958 9.03783 5.64233 9.30193 5.54618L9.69233 2.50003H14.3076L14.6884 5.55581C14.9884 5.66477 15.2599 5.79201 15.5029 5.93753C15.7458 6.08305 15.991 6.25453 16.2384 6.45198L19.0884 5.26928L21.3961 9.25001L18.9173 11.1231C18.9532 11.2846 18.9727 11.4356 18.9759 11.576C18.9791 11.7163 18.9807 11.8577 18.9807 12C18.9807 12.1359 18.9775 12.274 18.9711 12.4144C18.9647 12.5548 18.9416 12.7154 18.9019 12.8962L21.3615 14.75L19.0538 18.75L16.2384 17.548C15.991 17.7455 15.7384 17.9202 15.4807 18.0721C15.223 18.224 14.9589 18.3481 14.6884 18.4442L14.3076 21.5H9.69233ZM12.0115 15C12.8436 15 13.5516 14.708 14.1355 14.124C14.7195 13.54 15.0115 12.832 15.0115 12C15.0115 11.168 14.7195 10.46 14.1355 9.87598C13.5516 9.29202 12.8436 9.00003 12.0115 9.00003C11.1692 9.00003 10.4587 9.29202 9.87981 9.87598C9.30097 10.46 9.01156 11.168 9.01156 12C9.01156 12.832 9.30097 13.54 9.87981 14.124C10.4587 14.708 11.1692 15 12.0115 15ZM12.0115 13.5C11.5948 13.5 11.2407 13.3542 10.949 13.0625C10.6573 12.7708 10.5115 12.4167 10.5115 12C10.5115 11.5833 10.6573 11.2292 10.949 10.9375C11.2407 10.6458 11.5948 10.5 12.0115 10.5C12.4282 10.5 12.7823 10.6458 13.074 10.9375C13.3657 11.2292 13.5115 11.5833 13.5115 12C13.5115 12.4167 13.3657 12.7708 13.074 13.0625C12.7823 13.3542 12.4282 13.5 12.0115 13.5ZM11 20H12.9654L13.325 17.3212C13.8352 17.1878 14.3016 16.9984 14.724 16.7529C15.1464 16.5074 15.5538 16.1917 15.9461 15.8058L18.4308 16.85L19.4154 15.15L17.2461 13.5154C17.3295 13.2564 17.3862 13.0026 17.4163 12.7539C17.4464 12.5051 17.4615 12.2539 17.4615 12C17.4615 11.7398 17.4464 11.4885 17.4163 11.2462C17.3862 11.0039 17.3295 10.7564 17.2461 10.5039L19.4346 8.85001L18.45 7.15001L15.9365 8.20963C15.6019 7.85193 15.2009 7.53591 14.7336 7.26156C14.2663 6.98719 13.7936 6.79296 13.3154 6.67886L13 4.00001H11.0154L10.6846 6.66923C10.1743 6.78975 9.70318 6.97436 9.27113 7.22308C8.83908 7.4718 8.42691 7.79232 8.03461 8.18463L5.54998 7.15001L4.56536 8.85001L6.72498 10.4596C6.64165 10.6968 6.58332 10.9436 6.54998 11.2C6.51665 11.4564 6.49998 11.7263 6.49998 12.0096C6.49998 12.2699 6.51665 12.525 6.54998 12.775C6.58332 13.025 6.63844 13.2718 6.71536 13.5154L4.56536 15.15L5.54998 16.85L8.02498 15.8C8.40447 16.1898 8.81023 16.509 9.24228 16.7577C9.67433 17.0064 10.1519 17.1974 10.675 17.3308L11 20Z" fill="#4F5D70"/>
</g>
</svg>
