<svg width="14" height="17" viewBox="0 0 14 17" fill="none" xmlns="http://www.w3.org/2000/svg">
    <path
        d="M8.55364 0.600311C8.55364 0.600311 3.56849 1.72594 2.88953 6.05111C2.49195 8.98757 7.23242 8.39417 7.23242 8.39417C6.06402 8.99396 4.77166 9.3124 3.45839 9.32407C1.27471 9.28124 0.504005 7.87418 0.504005 6.83418C0.539738 6.08251 0.823694 5.36389 1.31142 4.79088C2.52794 3.20436 4.17592 2.00219 6.05801 1.32831C6.86937 1.02015 7.70386 0.77672 8.55364 0.600311Z"
        fill="#4F5D70" />
    <path
        d="M5.20168 6.58338C6.74571 5.91005 8.41068 5.55827 10.0951 5.5495C12.762 5.5495 13.496 7.02384 13.496 8.10666C13.496 9.18948 12.9333 10.364 11.661 11.6426C10.0211 13.3023 8.04923 14.5969 5.87452 15.4417C4.28831 16.0219 2.62898 16.3781 0.94442 16.5C3.65129 15.5772 6.11019 14.0452 8.13161 12.0219C11.2512 8.7857 9.69138 7.40312 9.31826 7.06054C8.94514 6.71795 8.08879 6.07562 5.20168 6.58338Z"
        fill="#4F5D70" />
    <path
        d="M11.3981 3.84209C12.1826 3.36356 12.4805 2.42145 12.0636 1.73782C11.6467 1.0542 10.6728 0.887946 9.88837 1.36648C9.1039 1.84501 8.80593 2.78712 9.22282 3.47075C9.63972 4.15437 10.6136 4.32063 11.3981 3.84209Z"
        fill="#4F5D70" />
</svg>